<svg width="32" height="32" viewBox="0 0 32 32" fill="none" xmlns="http://www.w3.org/2000/svg">
<rect width="32" height="32" rx="6" fill="#F5F1EB"/>
<path d="M16 4C16 4 18 8 18 12C18 14.2 17.1 16.2 15.6 17.6L16 20L14 24L12 20L12.4 17.6C10.9 16.2 10 14.2 10 12C10 8 16 4 16 4Z" fill="#C4A882" stroke="#8B6F4E" stroke-width="0.8"/>
<path d="M22 10C22 10 23 12.5 23 14.5C23 15.9 22.5 17.1 21.7 18L22 19.5L20.5 22L19 19.5L19.3 18C18.5 17.1 18 15.9 18 14.5C18 12.5 22 10 22 10Z" fill="#D4CCBC" stroke="#8B6F4E" stroke-width="0.6"/>
<ellipse cx="15" cy="27" rx="7" ry="1.5" fill="#8B6F4E" opacity="0.3"/>
<path d="M14.5 7C14.5 7 15 9 15 11C15 12.5 14.5 13.8 13.8 14.8" stroke="#8B6F4E" stroke-width="0.4" fill="none" opacity="0.5"/>
</svg>
